<svg xmlns="http://www.w3.org/2000/svg" viewBox="20.89999771118164 21.399995803833008 70.80000305175781 70.60000610351562" preserveAspectRatio="xMidYMid meet" style="stroke-width: 0px;">
    <g>
        <path d="M52.6 64.2c-.7 0-1.3-.6-1.3-1.3 0-3.7-3-6.7-6.8-6.7s-6.8 3-6.8 6.7c0 .7-.6 1.3-1.3 1.3s-1.3-.6-1.3-1.3c0-5.1 4.2-9.2 9.3-9.2 5.1 0 9.3 4.1 9.3 9.2.1.7-.4 1.3-1.1 1.3z"></path>
        <path d="M76.2 64.2c-.7 0-1.3-.6-1.3-1.3 0-3.7-3-6.7-6.8-6.7s-6.8 3-6.8 6.7c0 .7-.6 1.3-1.3 1.3s-1-.6-1-1.3c0-5.1 4.2-9.2 9.3-9.2s9.3 4.1 9.3 9.2c-.1.7-.7 1.3-1.4 1.3z"></path>
        <path d="M55.1 82.7c-3.9 0-7.1-3.2-7.1-7.1 0-.7.6-1.3 1.3-1.3s1.3.6 1.3 1.3c0 2.5 2 4.6 4.6 4.6s4.6-2 4.6-4.6c0-.7.6-1.3 1.3-1.3s1.3.6 1.3 1.3c-.2 3.9-3.4 7.1-7.3 7.1z"></path>
        <path d="M89 43.1c-.1 0-.1 0 0 0-.3-.8-.7-1.5-1-2.2l-.3-.6c-.2-.5-.5-.9-.8-1.4-.3-.5-.6-1-.9-1.4-.2-.3-.3-.5-.5-.8l-.9-1.2-.1-.1c-3.7-4.9-8.6-8.8-14.2-11.2-.1-.1-.3-.2-.5-.2-.4-.2-.8-.3-1.2-.5-.4-.1-.8-.3-1.2-.4-.4-.1-.9-.3-1.3-.4-.5-.1-1-.3-1.4-.4-.3-.1-.5-.1-.8-.2-.7-.2-1.4-.3-2.2-.4h-.3c-.7-.1-1.4-.2-2.1-.2h-.6c-.8-.1-1.6-.1-2.4-.1-19.5 0-35.4 15.9-35.4 35.4C20.9 76.1 36.8 92 56.3 92s35.4-15.9 35.4-35.4c-.1-4.8-1-9.3-2.7-13.5zM53.6 32.6c0-.1 0-.1-.1-.2-.8-1.4-1.5-2.8-2.1-4.3-.1-.2-.2-.4-.2-.6-.2-.5-.3-1-.5-1.5-.1-.3-.2-.7-.3-1-.1-.2-.1-.4-.1-.6 1.5-.3 3-.5 4.5-.5h1.5c.7 0 1.4 0 2.2.1h.6c.6 0 1.2.1 1.7.2.1 0 .3 0 .4.1.7.1 1.3.2 2 .4.2.1.5.1.7.2l1.2.3c.3.1.6.2.9.2.4.1.9.3 1.3.4l1.5.6c.2.1.3.1.5.2C75 28.9 79.9 33 83.4 38c.1.1.1.2.2.3.2.3.4.7.6 1 .2.3.4.6.6 1 .1.2.3.4.4.7l.9 1.8c0 .1.1.1.1.2-3.3 1.3-6.7 2-10.2 2-9.4 0-17.7-4.9-22.4-12.4zm-5.8-7.7c0 .1 0 .1.1.2.1.6.3 1.2.5 1.8 0 .1 0 .1.1.2.6 2.1 1.5 4.1 2.6 6C46.4 40.4 38.4 45 29.7 45c-1.3 0-2.7-.1-4-.3 3.8-9.7 12.1-17.1 22.1-19.8zm8.5 64.6c-18.1 0-32.9-14.7-32.9-32.9 0-3.3.5-6.6 1.4-9.6 1.6.3 3.3.5 4.9.5 9.1 0 17.6-4.6 22.8-12.1 5.3 7.4 13.9 12.1 23.5 12.1 3.8 0 7.6-.8 11.1-2.3 1.3 3.5 2 7.4 2 11.4 0 18.1-14.7 32.9-32.8 32.9z"></path>
    </g>
</svg>
