<svg xmlns="http://www.w3.org/2000/svg" viewBox="-1.164993520533102 -54.353081000906016 180.31574892194084 242.42450688394266" preserveAspectRatio="xMidYMid meet" style="stroke-width: 1px;">
    <g>
        <path d="M177.437 30.821c-8.172-7.526-32.021-21.327-33.021-21.904-.449-.266-11.17-6.526-24.133-8.56a1.498 1.498 0 0 0-1.721 1.292c-1.174 9.204-13.604 16.414-28.301 16.414-14.949 0-27.395-7.341-28.336-16.712A1.503 1.503 0 0 0 60.273.009c-14.084 1.499-26.25 8.605-26.75 8.901-1.012.587-24.868 14.443-33.04 21.968a1.503 1.503 0 0 0-.166 2.028l19.275 24.625c.35.445 1.191.652 1.744.547l20.643-4.021v78.675c0 .828.129 1.019.957 1.019h92c.828 0 2.043-.19 2.043-1.019V54.054l20.133 3.996c.549.112.985-.104 1.335-.547l19.222-24.653c.48-.617.342-1.499-.232-2.029zM3.552 32.17c1.162-.989 2.564-2.075 4.117-3.214 1.703 2.057 13.104 15.924 18.664 25.023l-4.945.977L3.552 32.17zm130.427 98.58h-89v-5h89v5zm1.245-79.99c-.441-.091-.625.028-.969.313-.348.285-.275.71-.275 1.158v70.519h-89V52.231c0-.449-.473-.874-.82-1.159-.346-.284-.94-.396-1.378-.313l-13.255 2.603C24.142 44.2 12.385 29.905 10.148 27.206c10.268-7.193 24.71-15.592 24.905-15.705.115-.068 11.271-6.592 24.131-8.337 2.15 10.152 15.381 17.899 31.08 17.899 15.66 0 28.598-7.42 30.994-17.497 11.75 2.169 21.533 7.875 21.645 7.941.189.109 14.707 8.511 24.975 15.698-2.236 2.699-13.965 16.998-19.348 26.16l-13.306-2.605zm21.291 4.17l-4.855-.951c5.561-9.099 16.963-22.968 18.664-25.023 1.523 1.118 2.9 2.185 4.045 3.158L156.515 54.93z"></path>
        <path d="M119.937 37.75h-22c-.828 0-.957 1.153-.957 1.981v21c0 .513-.01.99.422 1.266l10.864 7c.246.156.456.234.737.234.279 0 .526-.078.772-.234l11.255-7c.434-.275.949-.753.949-1.266v-21c0-.828-1.214-1.981-2.042-1.981zm-.958 3v4h-19v-4h19zm-9.5 25.203l-9.5-6.045V47.75h19v12.158l-9.5 6.045z"></path>
    </g>
</svg>
